<?xml version="1.0" encoding="UTF-8" standalone="no"?>
<!-- Created with Inkscape (http://www.inkscape.org/) -->

<svg
   xmlns:dc="http://purl.org/dc/elements/1.1/"
   xmlns:cc="http://creativecommons.org/ns#"
   xmlns:rdf="http://www.w3.org/1999/02/22-rdf-syntax-ns#"
   xmlns:svg="http://www.w3.org/2000/svg"
   xmlns="http://www.w3.org/2000/svg"
   xmlns:sodipodi="http://sodipodi.sourceforge.net/DTD/sodipodi-0.dtd"
   xmlns:inkscape="http://www.inkscape.org/namespaces/inkscape"
   width="410.73752pt"
   height="410.73593pt"
   viewBox="0 0 513.42189 513.41992"
   id="svg2"
   version="1.1"
   inkscape:version="0.91 r13725"
   sodipodi:docname="Jesse-socicons-lesser.svg"
   inkscape:export-filename="/home/jc/Dropbox/DocTools/Desk/Image Cloud/Images/Icons/Social Media/Custom/Social Icons/PDT_CW.png"
   inkscape:export-xdpi="87.647217"
   inkscape:export-ydpi="87.647217">
  <defs
     id="defs4">
    <style
       id="style4894">.cls-1{fill:#6441a4;fill-rule:evenodd;}</style>
  </defs>
  <sodipodi:namedview
     id="base"
     pagecolor="#ffffff"
     bordercolor="#666666"
     borderopacity="1.0"
     inkscape:pageopacity="0.0"
     inkscape:pageshadow="2"
     inkscape:zoom="1.6205059"
     inkscape:cx="112.74654"
     inkscape:cy="256.70996"
     inkscape:document-units="px"
     inkscape:current-layer="svg2"
     showgrid="false"
     inkscape:window-width="1920"
     inkscape:window-height="1023"
     inkscape:window-x="0"
     inkscape:window-y="27"
     inkscape:window-maximized="1"
     fit-margin-top="2"
     fit-margin-left="2"
     fit-margin-right="2"
     fit-margin-bottom="2"
     units="pt"
     inkscape:object-paths="false"
     inkscape:snap-intersection-paths="false"
     inkscape:object-nodes="false"
     inkscape:snap-smooth-nodes="false"
     inkscape:snap-bbox="true"
     inkscape:bbox-paths="true"
     inkscape:bbox-nodes="true"
     inkscape:snap-bbox-edge-midpoints="true"
     inkscape:snap-bbox-midpoints="true"
     inkscape:snap-nodes="true"
     inkscape:snap-global="true"
     showguides="true"
     inkscape:guide-bbox="true" />
  <metadata
     id="metadata7">
    <rdf:RDF>
      <cc:Work
         rdf:about="">
        <dc:format>image/svg+xml</dc:format>
        <dc:type
           rdf:resource="http://purl.org/dc/dcmitype/StillImage" />
        <dc:title />
      </cc:Work>
    </rdf:RDF>
  </metadata>
  <g
     inkscape:groupmode="layer"
     id="layer4"
     inkscape:label="Red"
     style="display:none">
    <rect
       style="fill:#ff0000"
       id="rect4493"
       width="514.03809"
       height="514.32428"
       x="-0.16852075"
       y="-0.70734233"
       ry="0" />
  </g>
  <g
     style="display:none"
     inkscape:label="Round Corners"
     id="g3511"
     inkscape:groupmode="layer">
    <rect
       y="2.6962547"
       x="2.6972275"
       height="508.0274"
       width="508.0274"
       id="rect3536"
       style="display:inline;fill:#000000"
       ry="130.51184" />
  </g>
  <g
     inkscape:groupmode="layer"
     id="g3515"
     inkscape:label="Square"
     style="display:none">
    <rect
       style="fill:#000000"
       id="rect3519"
       width="508.0274"
       height="508.0274"
       x="2.6972275"
       y="2.6962547" />
  </g>
  <g
     inkscape:groupmode="layer"
     id="layer15"
     inkscape:label="Circle Dev"
     style="display:none">
    <path
       id="path4777"
       d="M 256.71094,-5 C 112.26122,-5 -5,112.26122 -5,256.71094 c 0,144.44972 117.26122,261.70898 261.71094,261.70898 144.44972,0 261.71094,-117.26122 261.71094,-261.71094 C 518.42187,112.25926 401.16066,-5 256.71094,-5 Z m 0,7.5 A 254.21021,254.21021 0 0 1 510.92188,256.71094 254.21021,254.21021 0 0 1 256.71094,510.91992 254.21021,254.21021 0 0 1 2.5,256.71094 254.21021,254.21021 0 0 1 256.71094,2.5 Z"
       style="color:#000000;font-style:normal;font-variant:normal;font-weight:normal;font-stretch:normal;font-size:medium;line-height:normal;font-family:sans-serif;text-indent:0;text-align:start;text-decoration:none;text-decoration-line:none;text-decoration-style:solid;text-decoration-color:#000000;letter-spacing:normal;word-spacing:normal;text-transform:none;direction:ltr;block-progression:tb;writing-mode:lr-tb;baseline-shift:baseline;text-anchor:start;white-space:normal;clip-rule:nonzero;display:inline;overflow:visible;visibility:visible;opacity:1;isolation:auto;mix-blend-mode:normal;color-interpolation:sRGB;color-interpolation-filters:linearRGB;solid-color:#000000;solid-opacity:1;fill:#ff0000;fill-opacity:1;fill-rule:nonzero;stroke:none;stroke-width:15;stroke-linecap:butt;stroke-linejoin:miter;stroke-miterlimit:4;stroke-dasharray:none;stroke-dashoffset:0;stroke-opacity:1;color-rendering:auto;image-rendering:auto;shape-rendering:auto;text-rendering:auto;enable-background:accumulate"
       inkscape:connector-curvature="0" />
    <circle
       style="display:inline;opacity:1;fill:#ff0000"
       id="circle4758"
       cx="256.71094"
       cy="256.70996"
       r="254.21021" />
    <circle
       style="display:inline;opacity:1;fill:#00ff00"
       id="circle4771"
       cx="256.71094"
       cy="256.70996"
       r="254.21021" />
    <path
       style="color:#000000;font-style:normal;font-variant:normal;font-weight:normal;font-stretch:normal;font-size:medium;line-height:normal;font-family:sans-serif;text-indent:0;text-align:start;text-decoration:none;text-decoration-line:none;text-decoration-style:solid;text-decoration-color:#000000;letter-spacing:normal;word-spacing:normal;text-transform:none;direction:ltr;block-progression:tb;writing-mode:lr-tb;baseline-shift:baseline;text-anchor:start;white-space:normal;clip-rule:nonzero;display:inline;overflow:visible;visibility:visible;opacity:1;isolation:auto;mix-blend-mode:normal;color-interpolation:sRGB;color-interpolation-filters:linearRGB;solid-color:#000000;solid-opacity:1;fill:#000000;fill-opacity:1;fill-rule:nonzero;stroke:none;stroke-width:10;stroke-linecap:butt;stroke-linejoin:miter;stroke-miterlimit:4;stroke-dasharray:none;stroke-dashoffset:0;stroke-opacity:1;color-rendering:auto;image-rendering:auto;shape-rendering:auto;text-rendering:auto;enable-background:accumulate"
       d="M 256.71094,2.5 A 254.21021,254.21021 0 0 0 2.5,256.71094 254.21021,254.21021 0 0 0 256.71094,510.91992 254.21021,254.21021 0 0 0 510.92188,256.71094 254.21021,254.21021 0 0 0 256.71094,2.5 Z m 0,14.099609 c 132.72992,0 240.11132,107.381421 240.11133,240.111331 0,132.72992 -107.38137,240.10937 -240.11133,240.10937 -132.72997,0 -240.111331,-107.37945 -240.111331,-240.10937 0,-132.72991 107.381411,-240.111331 240.111331,-240.111331 z"
       id="path4779"
       inkscape:connector-curvature="0" />
  </g>
  <g
     inkscape:groupmode="layer"
     id="layer16"
     inkscape:label="Circle K"
     style="display:inline">
    <path
       id="path4797"
       d="M 256.71094,2.5 A 254.21021,254.21021 0 0 0 2.5,256.71094 254.21021,254.21021 0 0 0 256.71094,510.91992 254.21021,254.21021 0 0 0 510.92188,256.71094 254.21021,254.21021 0 0 0 256.71094,2.5 Z m 0,14.099609 c 132.72992,0 240.11132,107.381421 240.11133,240.111331 0,132.72992 -107.38137,240.10937 -240.11133,240.10937 -132.72997,0 -240.111331,-107.37945 -240.111331,-240.10937 0,-132.72991 107.381411,-240.111331 240.111331,-240.111331 z"
       style="color:#000000;font-style:normal;font-variant:normal;font-weight:normal;font-stretch:normal;font-size:medium;line-height:normal;font-family:sans-serif;text-indent:0;text-align:start;text-decoration:none;text-decoration-line:none;text-decoration-style:solid;text-decoration-color:#000000;letter-spacing:normal;word-spacing:normal;text-transform:none;direction:ltr;block-progression:tb;writing-mode:lr-tb;baseline-shift:baseline;text-anchor:start;white-space:normal;clip-rule:nonzero;display:inline;overflow:visible;visibility:visible;opacity:1;isolation:auto;mix-blend-mode:normal;color-interpolation:sRGB;color-interpolation-filters:linearRGB;solid-color:#000000;solid-opacity:1;fill:#000000;fill-opacity:1;fill-rule:nonzero;stroke:none;stroke-width:10;stroke-linecap:butt;stroke-linejoin:miter;stroke-miterlimit:4;stroke-dasharray:none;stroke-dashoffset:0;stroke-opacity:1;color-rendering:auto;image-rendering:auto;shape-rendering:auto;text-rendering:auto;enable-background:accumulate"
       inkscape:connector-curvature="0" />
  </g>
  <g
     inkscape:label="Circle W"
     id="g4801"
     inkscape:groupmode="layer"
     style="display:none">
    <path
       style="color:#000000;font-style:normal;font-variant:normal;font-weight:normal;font-stretch:normal;font-size:medium;line-height:normal;font-family:sans-serif;text-indent:0;text-align:start;text-decoration:none;text-decoration-line:none;text-decoration-style:solid;text-decoration-color:#000000;letter-spacing:normal;word-spacing:normal;text-transform:none;direction:ltr;block-progression:tb;writing-mode:lr-tb;baseline-shift:baseline;text-anchor:start;white-space:normal;clip-rule:nonzero;display:inline;overflow:visible;visibility:visible;opacity:1;isolation:auto;mix-blend-mode:normal;color-interpolation:sRGB;color-interpolation-filters:linearRGB;solid-color:#000000;solid-opacity:1;fill:#ffffff;fill-opacity:1;fill-rule:nonzero;stroke:none;stroke-width:10;stroke-linecap:butt;stroke-linejoin:miter;stroke-miterlimit:4;stroke-dasharray:none;stroke-dashoffset:0;stroke-opacity:1;color-rendering:auto;image-rendering:auto;shape-rendering:auto;text-rendering:auto;enable-background:accumulate"
       d="M 256.71094,2.5 A 254.21021,254.21021 0 0 0 2.5,256.71094 254.21021,254.21021 0 0 0 256.71094,510.91992 254.21021,254.21021 0 0 0 510.92188,256.71094 254.21021,254.21021 0 0 0 256.71094,2.5 Z m 0,14.099609 c 132.72992,0 240.11132,107.381421 240.11133,240.111331 0,132.72992 -107.38137,240.10937 -240.11133,240.10937 -132.72997,0 -240.111331,-107.37945 -240.111331,-240.10937 0,-132.72991 107.381411,-240.111331 240.111331,-240.111331 z"
       id="path4803"
       inkscape:connector-curvature="0" />
  </g>
  <g
     inkscape:groupmode="layer"
     id="layer6"
     inkscape:label="Disc K"
     style="display:none">
    <circle
       r="254.21021"
       cy="256.70996"
       cx="256.71094"
       id="circle4495"
       style="display:inline;opacity:1;fill:#000000" />
  </g>
  <g
     style="display:none"
     inkscape:label="Disc W"
     id="g5269"
     inkscape:groupmode="layer">
    <circle
       transform="translate(-268.48047,-27.947266)"
       style="display:inline;opacity:1;fill:#ffffff"
       id="circle5271"
       cx="525.19128"
       cy="284.65768"
       r="254.21021" />
  </g>
  <g
     inkscape:groupmode="layer"
     id="layer2"
     inkscape:label="Black Icons"
     style="display:none">
    <g
       inkscape:groupmode="layer"
       id="layer3"
       inkscape:label="NewIcon K"
       style="display:none" />
  </g>
  <g
     inkscape:groupmode="layer"
     id="layer8"
     inkscape:label="Size Reference"
     style="display:none">
    <g
       inkscape:groupmode="layer"
       id="g4906"
       inkscape:label="Medium DK"
       style="display:none">
      <path
         style="fill:#000000"
         d="m 108.2684,338.87857 c -0.71207,-0.37828 -1.21768,-1.02684 -1.22045,-2.06046 l 0.23325,-206.53819 c 0.0469,-2.05356 1.85913,-2.73157 3.30164,-2.05206 l 96.32581,47.61061 -0.0983,207.80545 c -0.003,1.7114 -1.63534,2.73879 -3.2233,1.98486 z m 206.64512,3.2077 91.70536,-149.69882 0.0342,191.27015 c 0.004,1.53538 -1.53301,2.76956 -3.18998,1.96972 z m -99.1219,-49.54584 0.38076,-101.42718 c 1.33959,2.17106 90.17104,146.47567 90.17104,146.47567 z m 30.96265,-69.23899 61.11122,-96.27152 97.92613,48.9009 -93.44759,152.87327 z"
         id="path4908"
         inkscape:connector-curvature="0"
         sodipodi:nodetypes="cccccccccccccccccccccc" />
    </g>
    <g
       style="display:none"
       inkscape:label="RSS Box K"
       id="g4442"
       inkscape:groupmode="layer">
      <rect
         id="rect4446"
         rx="53.637474"
         height="286.06653"
         width="286.06653"
         class="button"
         x="113.67765"
         y="113.67668"
         style="fill:#000000;stroke:none" />
      <g
         id="g4448"
         transform="matrix(1.1174474,0,0,1.1174474,14.610892,55.955103)"
         style="fill:#ffffff">
        <circle
           style="fill:#ffffff;stroke:none"
           class="symbol"
           cx="152.65451"
           cy="243.65485"
           r="32"
           id="circle4450" />
        <path
           style="fill:#ffffff;stroke:none"
           inkscape:connector-curvature="0"
           class="symbol"
           d="m 120.65452,179.65485 a 96,96 0 0 1 96,96 l 32,0 a 128,128 0 0 0 -128,-128 z"
           id="path4452" />
        <path
           style="fill:#ffffff;stroke:none"
           inkscape:connector-curvature="0"
           class="symbol"
           d="m 120.65452,115.65485 a 160,160 0 0 1 160,160 l 32,0 a 192,192 0 0 0 -192,-192.000001 z"
           id="path4454" />
      </g>
    </g>
    <g
       inkscape:label="Email K"
       id="g4166"
       inkscape:groupmode="layer"
       style="display:none">
      <g
         transform="matrix(2.5016367,0,0,2.5016367,-352.12269,-126.76328)"
         id="g5263"
         style="font-style:normal;font-weight:normal;font-size:40px;line-height:125%;font-family:sans-serif;letter-spacing:0px;word-spacing:0px;display:inline;fill:#000000;fill-opacity:1;stroke:none;stroke-width:1px;stroke-linecap:butt;stroke-linejoin:miter;stroke-opacity:1">
        <path
           inkscape:connector-curvature="0"
           id="path5265"
           style="font-style:normal;font-variant:normal;font-weight:normal;font-stretch:normal;font-size:180px;font-family:TakaoPGothic;-inkscape-font-specification:TakaoPGothic;fill:#000000"
           d="m 297.03134,206.37488 q -21.97265,14.15039 -50.18555,14.15039 -32.43164,0 -51.5039,-19.07227 -18.19336,-18.19336 -18.19336,-46.23047 0,-28.74023 19.95117,-49.04296 20.21484,-20.126958 49.6582,-20.126958 28.82813,0 47.02149,18.193358 15.82031,15.82031 15.82031,40.16602 0,20.39062 -11.68945,35.06836 -11.16211,13.88672 -25.92774,13.88672 -12.30468,0 -13.0957,-13.97461 -11.16211,13.27148 -25.57617,13.27148 -9.31641,0 -15.82031,-6.50391 -8.26172,-8.26171 -8.26172,-24.25781 0,-21.62109 12.04101,-36.38672 11.42578,-14.41406 26.45508,-14.41406 15.9082,0 21.00586,13.71094 l 3.25195,-9.93164 10.10743,0 -11.16211,45.52734 q -2.19727,8.96484 -2.19727,13.53516 0,8.4375 5.625,8.4375 8.61328,0 15.99609,-10.10742 8.08594,-11.60157 8.08594,-27.86133 0,-20.56641 -13.18359,-33.66211 -14.50196,-14.589846 -38.14453,-14.589846 -23.37891,0 -39.90235,16.523436 -17.31445,17.57813 -17.31445,42.71485 0,23.81835 14.94141,38.75976 15.99609,15.64453 43.0664,15.64453 24.34571,0 45,-13.35937 l 4.13086,9.93164 z m -48.25195,-84.81446 q -9.84375,0 -17.05078,10.45899 -8.78907,12.56836 -8.78907,29.53125 0,19.77539 12.74415,19.77539 11.68945,0 20.30273,-14.94141 7.38281,-12.83203 7.38281,-25.75195 0,-8.61328 -4.30664,-14.0625 -3.95508,-5.00977 -10.2832,-5.00977 z" />
      </g>
    </g>
    <g
       inkscape:label="YouTube K"
       id="g4150"
       inkscape:groupmode="layer"
       style="display:none">
      <g
         style="display:inline"
         id="g5112">
        <path
           inkscape:connector-curvature="0"
           id="path5106"
           d="m 249.2274,131.68031 c -39.88622,0.009 -79.73963,1.34873 -116.75436,4.46152 -24.49848,2.74572 -41.291285,32.58683 -43.121539,55.25438 -3.873467,47.61271 -3.873467,74.70712 0,122.31983 1.851684,22.66755 18.219549,52.67904 43.164699,55.82858 79.90098,5.21485 171.33774,5.95954 248.40795,0 24.17904,-4.19291 41.31302,-33.16103 43.16471,-55.82858 3.85203,-47.63414 3.85254,-77.68671 -0.021,-125.29941 -1.89455,-22.66756 -15.40971,-51.25286 -43.18564,-52.2748 -41.20358,-2.77039 -86.45047,-4.4712 -131.65486,-4.46152 z"
           style="fill:#000000" />
        <path
           inkscape:connector-curvature="0"
           id="path5108"
           d="m 222.1358,201.3782 0,95.07353 90.92785,-47.52861 -90.92785,-47.54492 z"
           style="fill:#ffffff" />
      </g>
    </g>
    <g
       style="display:none"
       inkscape:label="Flickr K"
       id="g4589"
       inkscape:groupmode="layer">
      <g
         id="g4601"
         style="fill:#000000"
         transform="matrix(0.99980585,0,0,0.99980585,2.5006091,2.4993237)" />
      <g
         id="g4603"
         style="fill:#000000"
         transform="matrix(0.99980585,0,0,0.99980585,2.5006091,2.4993237)" />
      <g
         id="g4605"
         style="fill:#000000"
         transform="matrix(0.99980585,0,0,0.99980585,2.5006091,2.4993237)" />
      <g
         id="g4607"
         style="fill:#000000"
         transform="matrix(0.99980585,0,0,0.99980585,2.5006091,2.4993237)" />
      <g
         id="g4609"
         style="fill:#000000"
         transform="matrix(0.99980585,0,0,0.99980585,2.5006091,2.4993237)" />
      <g
         id="g4611"
         style="fill:#000000"
         transform="matrix(0.99980585,0,0,0.99980585,2.5006091,2.4993237)" />
      <g
         id="g4613"
         style="fill:#000000"
         transform="matrix(0.99980585,0,0,0.99980585,2.5006091,2.4993237)" />
      <g
         id="g4615"
         style="fill:#000000"
         transform="matrix(0.99980585,0,0,0.99980585,2.5006091,2.4993237)" />
      <g
         id="g4617"
         style="fill:#000000"
         transform="matrix(0.99980585,0,0,0.99980585,2.5006091,2.4993237)" />
      <g
         id="g4619"
         style="fill:#000000"
         transform="matrix(0.99980585,0,0,0.99980585,2.5006091,2.4993237)" />
      <g
         id="g4621"
         style="fill:#000000"
         transform="matrix(0.99980585,0,0,0.99980585,2.5006091,2.4993237)" />
      <g
         id="g4623"
         style="fill:#000000"
         transform="matrix(0.99980585,0,0,0.99980585,2.5006091,2.4993237)" />
      <g
         id="g4625"
         style="fill:#000000"
         transform="matrix(0.99980585,0,0,0.99980585,2.5006091,2.4993237)" />
      <g
         id="g4627"
         style="fill:#000000"
         transform="matrix(0.99980585,0,0,0.99980585,2.5006091,2.4993237)" />
      <g
         id="g4629"
         style="fill:#000000"
         transform="matrix(0.99980585,0,0,0.99980585,2.5006091,2.4993237)" />
      <path
         inkscape:connector-curvature="0"
         style="display:inline;fill:#000000"
         d="m 162.71093,191.45312 a 65.257111,65.257111 0 0 0 -65.257812,65.25781 65.257111,65.257111 0 0 0 65.257812,65.25586 65.257111,65.257111 0 0 0 65.25781,-65.25586 65.257111,65.257111 0 0 0 -65.25781,-65.25781 z m 188,0 a 65.257111,65.257111 0 0 0 -65.25781,65.25781 65.257111,65.257111 0 0 0 65.25781,65.25586 65.257111,65.257111 0 0 0 65.25781,-65.25586 65.257111,65.257111 0 0 0 -65.25781,-65.25781 z"
         id="path4808" />
    </g>
    <g
       inkscape:groupmode="layer"
       id="g4169"
       inkscape:label="Pinterest K"
       style="display:none">
      <g
         style="display:inline"
         id="g5246">
        <path
           inkscape:connector-curvature="0"
           id="path5240"
           style="fill:#000000;fill-opacity:1;fill-rule:nonzero;stroke:none"
           d="m 425.70629,256.70994 c 0,93.33361 -75.66245,168.99419 -168.99559,168.99419 -93.33291,0 -168.995129,-75.66058 -168.995129,-168.99419 0,-93.33173 75.662219,-168.994186 168.995129,-168.994186 93.33314,0 168.99559,75.662456 168.99559,168.994186" />
        <path
           inkscape:connector-curvature="0"
           id="path5242"
           style="fill:#ffffff;fill-opacity:1;fill-rule:nonzero;stroke:none"
           d="m 256.50532,100.45604 c -86.29594,0 -156.25453,69.95655 -156.25453,156.2539 0,66.19667 41.18498,122.73719 99.31077,145.50447 -1.36627,-12.36287 -2.59946,-31.32519 0.5436,-44.82125 2.83863,-12.19598 18.32225,-77.6702 18.32225,-77.6702 0,0 -4.6741,-9.36017 -4.6741,-23.19915 0,-21.72655 12.59312,-37.94764 28.27297,-37.94764 13.33106,0 19.77114,10.00938 19.77114,22.01102 0,13.40617 -8.53585,33.44935 -12.94143,52.0258 -3.68126,15.55263 7.79978,28.23541 23.13859,28.23541 27.77232,0 49.11957,-29.28341 49.11957,-71.55308 0,-37.41203 -26.88322,-63.56998 -65.26814,-63.56998 -44.45908,0 -70.55531,33.34701 -70.55531,67.80962 0,13.42988 5.17287,27.831 11.62845,35.65895 1.2752,1.54677 1.4632,2.90295 1.08367,4.48163 -1.18648,4.93557 -3.82232,15.54888 -4.34033,17.71998 -0.68232,2.8607 -2.26476,3.46767 -5.22521,2.0906 -19.51601,-9.08531 -31.71763,-37.61576 -31.71763,-60.53442 0,-49.28997 35.81316,-94.55647 103.24395,-94.55647 54.20442,0 96.32833,38.62479 96.32833,90.24547 0,53.85141 -33.95492,97.18997 -81.08294,97.18997 -15.83311,0 -30.71821,-8.22415 -35.81315,-17.94085 0,0 -7.83453,29.83429 -9.73407,37.14352 -3.52893,13.57305 -13.05152,30.58513 -19.42072,40.96398 14.62011,4.52557 30.15701,6.96899 46.26427,6.96899 86.29759,0 156.25649,-69.95949 156.25649,-156.25637 0,-86.29735 -69.9589,-156.2539 -156.25649,-156.2539" />
      </g>
    </g>
    <g
       inkscape:groupmode="layer"
       id="g4156"
       inkscape:label="Instagram K"
       style="display:none">
      <g
         style="display:inline;fill:#000000"
         inkscape:label="Layer 1"
         id="g4970"
         transform="matrix(0.49041559,0,0,0.49041559,4.1478764,-77.179001)"
         inkscape:export-filename="/home/jc/Dropbox/DocTools/Desk/Image Cloud/Images/Icons/Social Media/Custom/Social Icons/g4970.png"
         inkscape:export-xdpi="106.28217"
         inkscape:export-ydpi="106.28217">
        <path
           style="fill:#000000;stroke:none;stroke-width:0.5;stroke-miterlimit:4;stroke-dasharray:none"
           d="m 514.375,57.4375 c -119.11229,-0.006 -154.11776,1.868351 -185.0625,9.931641 -61.34135,15.98376 -104.54228,59.559089 -120.07031,121.111329 -7.59307,30.09847 -9.46471,66.70198 -9.47071,184.81055 -0.006,116.93431 1.87345,153.44545 9.47071,183.56054 15.48989,61.40105 58.53688,104.92667 119.72656,121.0586 18.19663,4.79732 39.24693,7.42452 68.90625,8.61523 l 0,0.004 0.24023,0.01 c 37.03534,1.4739 192.71886,1.54295 228.76954,0.10156 35.88197,-1.43462 54.31744,-3.60043 73.80273,-8.67773 61.34136,-15.98375 104.54227,-59.55909 120.07031,-121.11133 7.58487,-30.06601 9.4668,-66.75921 9.4668,-184.18554 0,-117.42632 -1.88193,-154.11955 -9.4668,-184.18555 C 805.22977,126.9279 762.02886,83.352901 700.6875,67.369141 669.75636,59.309391 634.68124,57.4435 514.375,57.4375 Z M 515,114.82031 c 65.03636,0 130.0719,1.23382 148.25586,3.70117 22.84992,3.10046 43.61778,10.12236 57.46484,19.41016 8.50735,5.70623 22.21337,19.29179 28.07618,27.83008 10.17367,14.81645 17.11144,34.79807 20.34765,58.64844 4.9347,36.36793 4.9347,260.14379 0,296.51172 -4.52164,33.32371 -14.74037,55.67949 -33.89648,74.20507 -14.21523,13.74731 -26.3757,20.60638 -47.29297,26.66797 -19.0245,5.51309 -35.64503,6.91305 -96.71094,8.13672 -46.01402,0.92206 -95.4019,1.0316 -136.49805,0.48242 -41.09614,-0.54918 -73.91748,-1.75939 -86.72851,-3.46289 -23.97019,-3.18735 -44.5833,-10.05645 -58.73828,-19.55078 -8.50735,-5.70624 -22.21336,-19.29178 -28.07618,-27.83008 -10.17369,-14.81644 -17.11143,-34.79807 -20.34765,-58.64843 -4.93469,-36.36793 -4.93469,-260.14379 0,-296.51172 3.23622,-23.85037 10.17397,-43.83199 20.34765,-58.64844 5.86282,-8.53829 19.56883,-22.12385 28.07618,-27.83008 13.84706,-9.2878 34.61492,-16.3097 57.46484,-19.41016 18.18396,-2.46735 83.2195,-3.70117 148.25586,-3.70117 z m 167.27148,51.89453 c -5.64404,0.0879 -11.1938,1.26223 -15.51171,3.50977 -7.54243,3.92593 -14.39269,10.86122 -18.35547,18.57812 -4.38565,8.5404 -4.1779,23.35504 0.43945,32.26368 5.42803,10.47275 14.45302,17.82644 25.4668,20.74414 3.09549,0.82005 7.80116,0.86395 12.48828,0.34375 4.68712,-0.52021 9.34307,-1.6039 12.32422,-3.09571 7.41555,-3.71085 14.40935,-10.64245 18.31836,-18.15234 4.50587,-8.65659 4.72574,-22.25766 0.51953,-31.46875 -3.76388,-8.24241 -11.59977,-16.12251 -19.60938,-19.70898 -4.69704,-2.1032 -10.43604,-3.10155 -16.08008,-3.01368 z M 515,211.22461 c -10.49259,0 -20.98604,0.60181 -27.90625,1.80859 -67.12979,11.70647 -120.0201,64.59678 -131.72656,131.72657 -2.41356,13.84042 -2.41356,41.97209 0,55.8125 11.62321,66.65242 64.2074,119.6022 130.74023,131.65039 l 0.29492,0.0527 0,-0.0215 c 13.19126,2.32501 43.22015,2.36144 56.50391,0.0449 67.12979,-11.70647 120.0201,-64.59678 131.72656,-131.72656 2.41356,-13.84041 2.41356,-41.97208 0,-55.8125 C 662.92635,277.63006 610.03603,224.73967 542.90625,213.0332 535.98604,211.82642 525.49259,211.22461 515,211.22461 Z m 0,57.36328 c 9.12837,0 18.25592,0.7723 24.10547,2.32031 26.86529,7.10958 48.13267,21.99025 62.57226,43.77149 7.2284,10.90357 11.59553,20.7136 15.08008,33.88086 3.09603,11.6991 3.09603,36.51184 0,48.21093 -10.43106,39.4163 -38.26723,67.29215 -77.44531,77.55664 -15.24706,3.99468 -39.41975,3.26177 -54.86133,-1.66796 -35.66974,-11.38753 -61.39397,-38.80023 -71.20898,-75.88868 -3.09603,-11.69909 -3.09603,-36.51183 0,-48.21093 10.45758,-39.51649 38.13584,-67.19477 77.65234,-77.65235 5.84955,-1.54801 14.9771,-2.32031 24.10547,-2.32031 z"
           transform="translate(0,308.26772)"
           id="path4973"
           inkscape:connector-curvature="0" />
      </g>
    </g>
    <g
       inkscape:groupmode="layer"
       id="g4160"
       inkscape:label="GitHub K"
       style="display:none">
      <path
         inkscape:connector-curvature="0"
         id="path4183"
         style="display:inline;fill:#000000;fill-opacity:1;fill-rule:evenodd;stroke:none"
         d="m 256.69544,88.687242 c -92.85453,0 -168.158183,75.293338 -168.158183,168.178838 0,74.30221 48.182353,137.33056 115.009963,159.57889 8.41411,1.53829 11.48035,-3.65471 11.48035,-8.11469 0,-3.9851 -0.14454,-14.56725 -0.22714,-28.59763 -46.77829,10.15887 -56.64808,-22.54774 -56.64808,-22.54774 -7.65012,-19.42987 -18.67621,-24.60222 -18.67621,-24.60222 -15.26927,-10.42729 1.1563,-10.22081 1.1563,-10.22081 16.87982,1.18726 25.75851,17.33409 25.75851,17.33409 15.00085,25.69656 39.36562,18.27357 48.94634,13.96844 1.52796,-10.8609 5.87439,-18.27358 10.67508,-22.47546 -37.34211,-4.25352 -76.60449,-18.67622 -76.60449,-83.11896 0,-18.3665 6.55578,-33.36735 17.31343,-45.12644 -1.73443,-4.25351 -7.50558,-21.35014 1.65186,-44.507 0,0 14.11298,-4.52194 46.24144,17.23085 13.41094,-3.72698 27.80267,-5.58531 42.10149,-5.65759 14.28849,0.0743 28.6699,1.93061 42.10148,5.65759 32.10782,-21.75279 46.20015,-17.23085 46.20015,-17.23085 9.17809,23.15686 3.40694,40.25349 1.68282,44.507 10.77831,11.75909 17.28246,26.75994 17.28246,45.12644 0,64.60792 -39.32432,78.82415 -76.77998,82.98474 6.02924,5.193 11.40808,15.4551 11.40808,31.14767 0,22.47547 -0.20649,40.61483 -0.20649,46.12788 0,4.50129 3.03528,9.73558 11.56294,8.09405 66.77598,-22.28963 114.91704,-85.27669 114.91704,-159.55825 0,-92.8855 -75.30364,-168.178838 -168.18916,-168.178838" />
    </g>
    <g
       inkscape:label="SoundCloud K"
       id="g4162"
       inkscape:groupmode="layer"
       style="display:none">
      <path
         style="display:inline;fill:#000000"
         inkscape:connector-curvature="0"
         d="m 79.847067,306.54333 c -0.117039,0.83529 -0.718226,1.41547 -1.455672,1.41547 -0.761926,0 -1.364811,-0.58366 -1.462672,-1.42247 l -2.668445,-19.91983 2.668445,-20.26757 c 0.09789,-0.8423 0.700746,-1.42772 1.462672,-1.42772 0.733945,0 1.342076,0.58542 1.455672,1.42247 l 3.164737,20.27282 -3.164737,19.92683 z m 21.558983,12.1242 c -0.12403,0.86675 -0.74967,1.47316 -1.513343,1.47316 -0.77764,0 -1.418968,-0.62038 -1.518569,-1.4819 l -3.587635,-32.04578 c 0,0 3.587635,-32.764 3.587635,-32.77274 0.106608,-0.85278 0.747935,-1.4714 1.518569,-1.4714 0.768903,0 1.392763,0.59939 1.520343,1.4714 l 4.07693,32.77274 -4.08393,32.05452 z m 21.40695,6.60907 c -0.0996,1.20053 -1.02052,2.1005 -2.14069,2.1005 -1.12888,0 -2.0568,-0.90171 -2.14417,-2.1005 l -3.21718,-38.6496 3.21718,-39.94627 c 0.0909,-1.20578 1.01179,-2.10923 2.14417,-2.10923 1.1184,0 2.0411,0.90345 2.14069,2.09874 l 3.65755,39.95676 -3.65755,38.6496 z m 20.96136,0.32154 c -0.0943,1.37181 -1.14812,2.40982 -2.4465,2.40982 -1.31763,0 -2.36613,-1.03801 -2.45352,-2.41681 l -3.0319,-38.96767 3.0319,-37.05761 c 0.0838,-1.37703 1.13415,-2.41855 2.45352,-2.41855 1.30362,0 2.35739,1.03277 2.4465,2.40107 l 3.44783,37.07509 -3.44783,38.97466 z m 20.97184,0.0129 0,-0.0129 c -0.0872,1.52384 -1.29841,2.7296 -2.76456,2.7296 -1.4714,0 -2.68419,-1.20054 -2.75932,-2.72262 l -2.85892,-38.96589 2.85892,-60.29074 c 0.0716,-1.53083 1.28618,-2.73659 2.75932,-2.73659 1.46441,0 2.67717,1.20576 2.76456,2.73659 l 3.22938,60.29074 -3.22938,38.97114 z m 20.96657,-0.25166 c -0.0768,1.70732 -1.4312,3.04591 -3.07211,3.04591 -1.65489,0 -3.00396,-1.34033 -3.07037,-3.03017 l -2.67193,-38.72126 c 0,0 2.66669,-74.08207 2.66669,-74.08729 0.0734,-1.70558 1.42247,-3.04243 3.07735,-3.04243 1.64092,0 2.99176,1.33511 3.07213,3.04243 l 3.01619,74.08729 -3.01795,38.70552 z m 21.39822,-0.62735 0,0.005 c -0.0664,2.05158 -1.68458,3.66452 -3.69424,3.66452 -2.01134,0 -3.63479,-1.61294 -3.69072,-3.65402 l -2.3032,-38.08516 2.29797,-82.97337 c 0.0542,-2.06383 1.68109,-3.67678 3.69595,-3.67678 2.00614,0 3.63308,1.61819 3.69424,3.67678 l 2.58808,82.97511 -2.58808,38.06769 z m 21.41047,-0.56618 0,-0.0297 c -0.0559,2.41854 -1.94672,4.30236 -4.31808,4.30236 -2.37838,0 -4.27791,-1.8908 -4.3251,-4.2744 l -1.92924,-37.48401 1.92924,-77.90387 c 0.0472,-2.4168 1.95023,-4.3041 4.3251,-4.3041 2.3696,0 4.2604,1.88904 4.31808,4.29711 l 2.16516,77.91259 -2.16516,37.48404 z m 21.8683,-0.76892 0,-0.0438 c -0.0385,2.72261 -2.25256,4.93146 -4.94021,4.93146 -2.69466,0 -4.90874,-2.2106 -4.94369,-4.89126 l -2.02887,-36.69766 2.02535,-101.109 c 0.0402,-2.72086 2.2543,-4.93146 4.94897,-4.93146 2.68941,0 4.9035,2.21235 4.94019,4.92273 l 2.20186,101.11773 -2.2036,36.70114 z m 143.8897,5.2163 c -0.80035,0 -124.29841,-0.0612 -124.41199,-0.0768 -2.68066,-0.26911 -4.8109,-2.55836 -4.84582,-5.30369 l 0,-142.45327 c 0.0331,-2.61777 0.93489,-3.96858 4.32331,-5.27921 8.71308,-3.36921 18.58476,-5.36309 28.71154,-5.36309 41.37746,0 75.30008,31.7347 78.87021,72.1825 5.34215,-2.24029 11.21027,-3.48453 17.36324,-3.48453 24.78489,0 44.87773,20.09983 44.87773,44.88996 -0.007,24.79363 -20.10333,44.8882 -44.88822,44.8882 z"
         id="path4781" />
    </g>
    <g
       inkscape:groupmode="layer"
       id="layer20"
       inkscape:label="Stitcher K"
       style="display:none">
      <path
         inkscape:connector-curvature="0"
         style="display:inline;fill:#000000;stroke:none;stroke-width:1.25;stroke-linecap:butt;stroke-linejoin:miter;stroke-miterlimit:4;stroke-dasharray:none"
         d="m 353.18402,147.99972 0,217.42045 10.00685,0 0,-217.42045 -10.00685,0 z m -279.668739,36.3643 0,145.91289 38.247479,0 0,-145.91289 -38.247479,0 z m 41.988939,0 0,145.91289 12.65542,0 0,-145.91289 -12.65542,0 z m 16.40041,0 0,145.91289 65.47356,0 0,-145.91289 -65.47356,0 z m 69.215,0 0,145.91289 129.85065,0 0,-145.91289 -129.85065,0 z m 137.33711,0 0,145.91289 7.24082,0 0,-145.91289 -7.24082,0 z m 32.2206,0 0,145.91289 7.24081,0 0,-145.91289 -7.24081,0 z m 14.72726,0 0,145.91289 54.50197,0 0,-145.91289 -54.50197,0 z"
         id="path4878" />
    </g>
    <g
       inkscape:label="tumblr K"
       id="g4154"
       inkscape:groupmode="layer"
       style="display:none">
      <g
         transform="matrix(2.238808,0,0,2.238808,183.10813,-185.63892)"
         style="display:inline;fill:#000000"
         id="g4689">
        <path
           style="fill:#000000"
           d="m 80.75391,225.49805 c -10.326,0 -18.69336,8.19764 -18.69336,18.30664 0,10.101 8.36736,18.30078 18.69336,18.30078 10.328,0 18.69531,-8.19978 18.69531,-18.30078 0,-10.109 -8.36731,-18.30664 -18.69531,-18.30664 z"
           id="path4691"
           inkscape:connector-curvature="0" />
        <path
           inkscape:connector-curvature="0"
           style="fill:#000000"
           d="m 0.453125,132.7793 c -0.318,0 -0.87317187,0.27375 -0.95117188,0.96875 -1.13800002,10.104 -5.97173472,27.84273 -26.05273412,34.92773 l 0,18.99219 15.285156,0 0,40.09961 c 0,14.499 9.0418598,35.09337 37.880859,34.60937 9.732,-0.161 20.5445,-4.15084 22.9375,-7.58984 l -6.36914,-18.48438 c -2.465,1.145 -7.170453,2.14724 -10.689453,2.24024 -10.6,0.272 -12.649235,-7.29025 -12.740235,-12.78125 l 0,-38.09375 24.703125,0 0,-22.07617 -24.605469,0 0,-32.8125 -19.398437,0 z"
           id="path4693" />
      </g>
    </g>
    <g
       inkscape:groupmode="layer"
       id="g4164"
       inkscape:label="Google Plus g K"
       style="display:none">
      <g
         id="g4635"
         transform="matrix(3.6184516,0,0,3.6184516,25.915912,18.534921)"
         style="display:inline;fill:#000000">
        <path
           style="fill:#000000"
           inkscape:connector-curvature="0"
           d="m 70.479,71.845 -3.983,-3.093 c -1.213,-1.006 -2.872,-2.334 -2.872,-4.765 0,-2.441 1.659,-3.993 3.099,-5.43 4.64,-3.652 9.276,-7.539 9.276,-15.73 0,-8.423 -5.3,-12.854 -7.84,-14.956 l 6.849,0 7.189,-4.517 -21.779,0 c -5.976,0 -14.588,1.414 -20.893,6.619 -4.752,4.1 -7.07,9.753 -7.07,14.842 0,8.639 6.633,17.396 18.346,17.396 1.106,0 2.316,-0.109 3.534,-0.222 -0.547,1.331 -1.1,2.439 -1.1,4.32 0,3.431 1.763,5.535 3.317,7.528 -4.977,0.342 -14.268,0.893 -21.117,5.103 -6.523,3.879 -8.508,9.525 -8.508,13.51 0,8.202 7.731,15.842 23.762,15.842 19.01,0 29.074,-10.519 29.074,-20.932 10e-4,-7.651 -4.419,-11.417 -9.284,-15.515 z M 56,59.107 c -9.51,0 -13.818,-12.294 -13.818,-19.712 0,-2.888 0.547,-5.87 2.428,-8.199 1.773,-2.218 4.861,-3.657 7.744,-3.657 9.168,0 13.923,12.404 13.923,20.382 0,1.996 -0.22,5.533 -2.762,8.09 -1.778,1.774 -4.753,3.096 -7.515,3.096 z m 0.109,44.543 c -11.826,0 -19.452,-5.657 -19.452,-13.523 0,-7.864 7.071,-10.524 9.504,-11.405 4.64,-1.561 10.611,-1.779 11.607,-1.779 1.105,0 1.658,0 2.538,0.111 8.407,5.983 12.056,8.965 12.056,14.629 0,6.859 -5.639,11.967 -16.253,11.967 z"
           id="path4637" />
        <polygon
           style="fill:#000000"
           points="98.393,58.938 98.393,47.863 92.923,47.863 92.923,58.938 81.866,58.938 81.866,64.469 92.923,64.469 92.923,75.612 98.393,75.612 98.393,64.469 109.506,64.469 109.506,58.938 "
           id="polygon4639" />
      </g>
    </g>
    <g
       style="display:none"
       inkscape:groupmode="layer"
       id="g4582"
       inkscape:label="Google Plus Box K">
      <g
         id="g4584">
        <path
           style="fill:#000000"
           inkscape:connector-curvature="0"
           d="m 393.03677,114.56236 -272.65168,0 c -5.01443,0 -9.07526,4.06083 -9.07526,9.07065 l 0,266.14467 c 0,5.01904 4.06083,9.07987 9.07526,9.07987 l 272.65168,0 c 5.01442,0 9.07526,-4.06314 9.07526,-9.07987 l 0,-266.14236 c 0,-5.01213 -4.06314,-9.07296 -9.07526,-9.07296 z"
           id="path4586" />
        <g
           id="g4588"
           transform="matrix(2.3033655,0,0,2.3033655,101.62648,105.09783)">
          <path
             style="fill:#ffffff"
             inkscape:connector-curvature="0"
             d="m 70.479,71.845 -3.983,-3.093 c -1.213,-1.006 -2.872,-2.334 -2.872,-4.765 0,-2.441 1.659,-3.993 3.099,-5.43 4.64,-3.652 9.276,-7.539 9.276,-15.73 0,-8.423 -5.3,-12.854 -7.84,-14.956 l 6.849,0 7.189,-4.517 -21.779,0 c -5.976,0 -14.588,1.414 -20.893,6.619 -4.752,4.1 -7.07,9.753 -7.07,14.842 0,8.639 6.633,17.396 18.346,17.396 1.106,0 2.316,-0.109 3.534,-0.222 -0.547,1.331 -1.1,2.439 -1.1,4.32 0,3.431 1.763,5.535 3.317,7.528 -4.977,0.342 -14.268,0.893 -21.117,5.103 -6.523,3.879 -8.508,9.525 -8.508,13.51 0,8.202 7.731,15.842 23.762,15.842 19.01,0 29.074,-10.519 29.074,-20.932 10e-4,-7.651 -4.419,-11.417 -9.284,-15.515 z M 56,59.107 c -9.51,0 -13.818,-12.294 -13.818,-19.712 0,-2.888 0.547,-5.87 2.428,-8.199 1.773,-2.218 4.861,-3.657 7.744,-3.657 9.168,0 13.923,12.404 13.923,20.382 0,1.996 -0.22,5.533 -2.762,8.09 -1.778,1.774 -4.753,3.096 -7.515,3.096 z m 0.109,44.543 c -11.826,0 -19.452,-5.657 -19.452,-13.523 0,-7.864 7.071,-10.524 9.504,-11.405 4.64,-1.561 10.611,-1.779 11.607,-1.779 1.105,0 1.658,0 2.538,0.111 8.407,5.983 12.056,8.965 12.056,14.629 0,6.859 -5.639,11.967 -16.253,11.967 z"
             id="path4590" />
          <polygon
             style="fill:#ffffff"
             points="92.923,64.469 92.923,75.612 98.393,75.612 98.393,64.469 109.506,64.469 109.506,58.938 98.393,58.938 98.393,47.863 92.923,47.863 92.923,58.938 81.866,58.938 81.866,64.469 "
             id="polygon4592" />
        </g>
      </g>
    </g>
    <g
       inkscape:label="Tiwitch K"
       id="g4910"
       inkscape:groupmode="layer"
       style="display:none">
      <path
         style="fill:#000000;fill-rule:evenodd"
         inkscape:connector-curvature="0"
         class="cls-1"
         d="m 131.75686,114.56236 -20.44703,52.25352 0,213.55786 72.70056,0 0,38.62217 40.89405,0 38.62216,-38.62217 59.06919,0 79.51624,-79.51622 0,-186.29516 -270.35517,0 z m 243.09246,172.6638 -45.43785,45.43784 -72.70054,0 -38.62217,38.62218 0,-38.62218 -61.34109,0 0,-190.83893 218.10165,0 0,145.40109 z m -45.43785,-93.14756 0,79.51621 -27.2627,0 0,-79.51621 27.2627,0 z m -72.70054,0 0,79.51621 -27.26271,0 0,-79.51621 27.26271,0 z"
         id="path4912" />
    </g>
    <g
       inkscape:groupmode="layer"
       id="g4152"
       inkscape:label="Twitter K"
       style="display:none">
      <g
         style="display:inline;fill:#000000"
         transform="matrix(1.7094148,0,0,1.7094148,-370.30265,-538.17324)"
         id="g4492">
        <path
           style="fill:#000000"
           inkscape:connector-curvature="0"
           d="m 453.82593,412.80619 c -6.3097,2.79897 -13.09189,4.68982 -20.20852,5.54049 7.26413,-4.35454 12.84406,-11.24992 15.47067,-19.46675 -6.79934,4.03295 -14.3293,6.96055 -22.34461,8.53841 -6.41775,-6.83879 -15.56243,-11.111 -25.68298,-11.111 -19.43159,0 -35.18696,15.75365 -35.18696,35.18525 0,2.75781 0.31128,5.44359 0.91155,8.01875 -29.24344,-1.46723 -55.16995,-15.47582 -72.52461,-36.76396 -3.02879,5.19662 -4.76443,11.24048 -4.76443,17.6891 0,12.20777 6.21194,22.97747 15.65332,29.28716 -5.76773,-0.18265 -11.19331,-1.76565 -15.93716,-4.40083 -0.004,0.14663 -0.004,0.29412 -0.004,0.44248 0,17.04767 12.12889,31.26806 28.22555,34.50266 -2.95247,0.80436 -6.06101,1.23398 -9.26989,1.23398 -2.2673,0 -4.47114,-0.22124 -6.62011,-0.63114 4.47801,13.97857 17.47214,24.15143 32.86992,24.43441 -12.04227,9.43796 -27.21366,15.06335 -43.69965,15.06335 -2.84014,0 -5.64082,-0.16722 -8.39349,-0.49223 15.57186,9.98421 34.06703,15.8094 53.93768,15.8094 64.72024,0 100.11301,-53.61524 100.11301,-100.11387 0,-1.52554 -0.0343,-3.04251 -0.10204,-4.55261 6.87394,-4.95995 12.83891,-11.15646 17.55618,-18.21305 z"
           id="path4494" />
      </g>
    </g>
    <g
       inkscape:groupmode="layer"
       id="layer1"
       inkscape:label="Facebook Box K"
       style="display:none">
      <g
         style="display:inline"
         id="g4517">
        <path
           style="fill:#000000"
           inkscape:connector-curvature="0"
           id="path4519"
           d="m 385.67947,401.68094 c 8.836,0 16.00132,-7.16532 16.00132,-16.00357 l 0,-257.93595 c 0,-8.83937 -7.1642,-16.00245 -16.00132,-16.00245 l -257.93595,0 c -8.83937,0 -16.00245,7.16308 -16.00245,16.00245 l 0,257.93595 c 0,8.83712 7.16195,16.00357 16.00245,16.00357 l 257.93595,0 z" />
        <path
           style="fill:#ffffff"
           inkscape:connector-curvature="0"
           id="path4521"
           d="m 311.79528,401.68094 0,-112.28151 37.68743,0 5.64316,-43.75809 -43.33059,0 0,-27.93678 c 0,-12.66898 3.51798,-21.30247 21.68498,-21.30247 l 23.17115,-0.0101 0,-39.13759 c -4.00736,-0.53327 -17.762,-1.72467 -33.76444,-1.72467 -33.40781,0 -56.2797,20.39232 -56.2797,57.84124 l 0,32.2704 -37.78418,0 0,43.75809 37.78418,0 0,112.28151 45.18801,0 z" />
      </g>
    </g>
  </g>
  <style
     id="style4347"
     type="text/css">
    .button {stroke: none; fill: orange;}
    .symbol {stroke: none; fill: white;}
  </style>
  <style
     id="style4839"
     type="text/css">
    .button {stroke: none; fill: orange;}
    .symbol {stroke: none; fill: white;}
  </style>
</svg>
