<?xml version="1.0" encoding="UTF-8" standalone="no"?>
<!-- Created with Inkscape (http://www.inkscape.org/) -->

<svg
   xmlns:dc="http://purl.org/dc/elements/1.1/"
   xmlns:cc="http://creativecommons.org/ns#"
   xmlns:rdf="http://www.w3.org/1999/02/22-rdf-syntax-ns#"
   xmlns:svg="http://www.w3.org/2000/svg"
   xmlns="http://www.w3.org/2000/svg"
   xmlns:sodipodi="http://sodipodi.sourceforge.net/DTD/sodipodi-0.dtd"
   xmlns:inkscape="http://www.inkscape.org/namespaces/inkscape"
   width="410.73752pt"
   height="410.73593pt"
   viewBox="0 0 513.42189 513.41992"
   id="svg2"
   version="1.1"
   inkscape:version="0.91 r13725"
   sodipodi:docname="O-Podcast.svg"
   inkscape:export-filename="/home/jc/Dropbox/DocTools/Desk/Image Cloud/Images/Icons/Social Media/Custom/Social Icons/250-Twitch_CW.png"
   inkscape:export-xdpi="43.823608"
   inkscape:export-ydpi="43.823608">
  <defs
     id="defs4">
    <style
       id="style4894">.cls-1{fill:#6441a4;fill-rule:evenodd;}</style>
  </defs>
  <sodipodi:namedview
     id="base"
     pagecolor="#ffffff"
     bordercolor="#666666"
     borderopacity="1.0"
     inkscape:pageopacity="0.0"
     inkscape:pageshadow="2"
     inkscape:zoom="1"
     inkscape:cx="101.08278"
     inkscape:cy="301.8159"
     inkscape:document-units="px"
     inkscape:current-layer="g3503"
     showgrid="false"
     inkscape:window-width="1920"
     inkscape:window-height="1023"
     inkscape:window-x="0"
     inkscape:window-y="27"
     inkscape:window-maximized="1"
     fit-margin-top="2"
     fit-margin-left="2"
     fit-margin-right="2"
     fit-margin-bottom="2"
     units="pt"
     inkscape:object-paths="false"
     inkscape:snap-intersection-paths="false"
     inkscape:object-nodes="false"
     inkscape:snap-smooth-nodes="false"
     inkscape:snap-bbox="true"
     inkscape:bbox-paths="true"
     inkscape:bbox-nodes="true"
     inkscape:snap-bbox-edge-midpoints="true"
     inkscape:snap-bbox-midpoints="true"
     inkscape:snap-nodes="true"
     inkscape:snap-global="true"
     showguides="true"
     inkscape:guide-bbox="true" />
  <metadata
     id="metadata7">
    <rdf:RDF>
      <cc:Work
         rdf:about="">
        <dc:format>image/svg+xml</dc:format>
        <dc:type
           rdf:resource="http://purl.org/dc/dcmitype/StillImage" />
        <dc:title />
      </cc:Work>
    </rdf:RDF>
  </metadata>
  <g
     inkscape:groupmode="layer"
     id="layer4"
     inkscape:label="Red"
     style="display:none">
    <rect
       style="fill:#ff0000"
       id="rect4493"
       width="514.03809"
       height="514.32428"
       x="-0.16852075"
       y="-0.70734233"
       ry="0" />
  </g>
  <g
     style="display:none"
     inkscape:label="Round Corners"
     id="g3511"
     inkscape:groupmode="layer">
    <rect
       y="2.6962547"
       x="2.6972275"
       height="508.0274"
       width="508.0274"
       id="rect3536"
       style="display:inline;fill:#000000"
       ry="130.51184" />
  </g>
  <g
     inkscape:groupmode="layer"
     id="g3515"
     inkscape:label="Square"
     style="display:none">
    <rect
       style="fill:#000000"
       id="rect3519"
       width="508.0274"
       height="508.0274"
       x="2.6972275"
       y="2.6962547" />
  </g>
  <g
     inkscape:groupmode="layer"
     id="layer15"
     inkscape:label="Circle Dev"
     style="display:none">
    <path
       id="path4777"
       d="M 256.71094,-5 C 112.26122,-5 -5,112.26122 -5,256.71094 c 0,144.44972 117.26122,261.70898 261.71094,261.70898 144.44972,0 261.71094,-117.26122 261.71094,-261.71094 C 518.42187,112.25926 401.16066,-5 256.71094,-5 Z m 0,7.5 A 254.21021,254.21021 0 0 1 510.92188,256.71094 254.21021,254.21021 0 0 1 256.71094,510.91992 254.21021,254.21021 0 0 1 2.5,256.71094 254.21021,254.21021 0 0 1 256.71094,2.5 Z"
       style="color:#000000;font-style:normal;font-variant:normal;font-weight:normal;font-stretch:normal;font-size:medium;line-height:normal;font-family:sans-serif;text-indent:0;text-align:start;text-decoration:none;text-decoration-line:none;text-decoration-style:solid;text-decoration-color:#000000;letter-spacing:normal;word-spacing:normal;text-transform:none;direction:ltr;block-progression:tb;writing-mode:lr-tb;baseline-shift:baseline;text-anchor:start;white-space:normal;clip-rule:nonzero;display:inline;overflow:visible;visibility:visible;opacity:1;isolation:auto;mix-blend-mode:normal;color-interpolation:sRGB;color-interpolation-filters:linearRGB;solid-color:#000000;solid-opacity:1;fill:#ff0000;fill-opacity:1;fill-rule:nonzero;stroke:none;stroke-width:15;stroke-linecap:butt;stroke-linejoin:miter;stroke-miterlimit:4;stroke-dasharray:none;stroke-dashoffset:0;stroke-opacity:1;color-rendering:auto;image-rendering:auto;shape-rendering:auto;text-rendering:auto;enable-background:accumulate"
       inkscape:connector-curvature="0" />
    <circle
       style="display:inline;opacity:1;fill:#ff0000"
       id="circle4758"
       cx="256.71094"
       cy="256.70996"
       r="254.21021" />
    <circle
       style="display:inline;opacity:1;fill:#00ff00"
       id="circle4771"
       cx="256.71094"
       cy="256.70996"
       r="254.21021" />
    <path
       style="color:#000000;font-style:normal;font-variant:normal;font-weight:normal;font-stretch:normal;font-size:medium;line-height:normal;font-family:sans-serif;text-indent:0;text-align:start;text-decoration:none;text-decoration-line:none;text-decoration-style:solid;text-decoration-color:#000000;letter-spacing:normal;word-spacing:normal;text-transform:none;direction:ltr;block-progression:tb;writing-mode:lr-tb;baseline-shift:baseline;text-anchor:start;white-space:normal;clip-rule:nonzero;display:inline;overflow:visible;visibility:visible;opacity:1;isolation:auto;mix-blend-mode:normal;color-interpolation:sRGB;color-interpolation-filters:linearRGB;solid-color:#000000;solid-opacity:1;fill:#000000;fill-opacity:1;fill-rule:nonzero;stroke:none;stroke-width:10;stroke-linecap:butt;stroke-linejoin:miter;stroke-miterlimit:4;stroke-dasharray:none;stroke-dashoffset:0;stroke-opacity:1;color-rendering:auto;image-rendering:auto;shape-rendering:auto;text-rendering:auto;enable-background:accumulate"
       d="M 256.71094,2.5 A 254.21021,254.21021 0 0 0 2.5,256.71094 254.21021,254.21021 0 0 0 256.71094,510.91992 254.21021,254.21021 0 0 0 510.92188,256.71094 254.21021,254.21021 0 0 0 256.71094,2.5 Z m 0,14.099609 c 132.72992,0 240.11132,107.381421 240.11133,240.111331 0,132.72992 -107.38137,240.10937 -240.11133,240.10937 -132.72997,0 -240.111331,-107.37945 -240.111331,-240.10937 0,-132.72991 107.381411,-240.111331 240.111331,-240.111331 z"
       id="path4779"
       inkscape:connector-curvature="0" />
  </g>
  <g
     inkscape:groupmode="layer"
     id="layer16"
     inkscape:label="Circle K"
     style="display:none">
    <path
       id="path4797"
       d="M 256.71094,2.5 A 254.21021,254.21021 0 0 0 2.5,256.71094 254.21021,254.21021 0 0 0 256.71094,510.91992 254.21021,254.21021 0 0 0 510.92188,256.71094 254.21021,254.21021 0 0 0 256.71094,2.5 Z m 0,14.099609 c 132.72992,0 240.11132,107.381421 240.11133,240.111331 0,132.72992 -107.38137,240.10937 -240.11133,240.10937 -132.72997,0 -240.111331,-107.37945 -240.111331,-240.10937 0,-132.72991 107.381411,-240.111331 240.111331,-240.111331 z"
       style="color:#000000;font-style:normal;font-variant:normal;font-weight:normal;font-stretch:normal;font-size:medium;line-height:normal;font-family:sans-serif;text-indent:0;text-align:start;text-decoration:none;text-decoration-line:none;text-decoration-style:solid;text-decoration-color:#000000;letter-spacing:normal;word-spacing:normal;text-transform:none;direction:ltr;block-progression:tb;writing-mode:lr-tb;baseline-shift:baseline;text-anchor:start;white-space:normal;clip-rule:nonzero;display:inline;overflow:visible;visibility:visible;opacity:1;isolation:auto;mix-blend-mode:normal;color-interpolation:sRGB;color-interpolation-filters:linearRGB;solid-color:#000000;solid-opacity:1;fill:#000000;fill-opacity:1;fill-rule:nonzero;stroke:none;stroke-width:10;stroke-linecap:butt;stroke-linejoin:miter;stroke-miterlimit:4;stroke-dasharray:none;stroke-dashoffset:0;stroke-opacity:1;color-rendering:auto;image-rendering:auto;shape-rendering:auto;text-rendering:auto;enable-background:accumulate"
       inkscape:connector-curvature="0" />
  </g>
  <g
     inkscape:label="Circle W"
     id="g4801"
     inkscape:groupmode="layer"
     style="display:none">
    <path
       style="color:#000000;font-style:normal;font-variant:normal;font-weight:normal;font-stretch:normal;font-size:medium;line-height:normal;font-family:sans-serif;text-indent:0;text-align:start;text-decoration:none;text-decoration-line:none;text-decoration-style:solid;text-decoration-color:#000000;letter-spacing:normal;word-spacing:normal;text-transform:none;direction:ltr;block-progression:tb;writing-mode:lr-tb;baseline-shift:baseline;text-anchor:start;white-space:normal;clip-rule:nonzero;display:inline;overflow:visible;visibility:visible;opacity:1;isolation:auto;mix-blend-mode:normal;color-interpolation:sRGB;color-interpolation-filters:linearRGB;solid-color:#000000;solid-opacity:1;fill:#ffffff;fill-opacity:1;fill-rule:nonzero;stroke:none;stroke-width:10;stroke-linecap:butt;stroke-linejoin:miter;stroke-miterlimit:4;stroke-dasharray:none;stroke-dashoffset:0;stroke-opacity:1;color-rendering:auto;image-rendering:auto;shape-rendering:auto;text-rendering:auto;enable-background:accumulate"
       d="M 256.71094,2.5 A 254.21021,254.21021 0 0 0 2.5,256.71094 254.21021,254.21021 0 0 0 256.71094,510.91992 254.21021,254.21021 0 0 0 510.92188,256.71094 254.21021,254.21021 0 0 0 256.71094,2.5 Z m 0,14.099609 c 132.72992,0 240.11132,107.381421 240.11133,240.111331 0,132.72992 -107.38137,240.10937 -240.11133,240.10937 -132.72997,0 -240.111331,-107.37945 -240.111331,-240.10937 0,-132.72991 107.381411,-240.111331 240.111331,-240.111331 z"
       id="path4803"
       inkscape:connector-curvature="0" />
  </g>
  <g
     inkscape:groupmode="layer"
     id="layer6"
     inkscape:label="Disc K"
     style="display:none">
    <circle
       r="254.21021"
       cy="256.70996"
       cx="256.71094"
       id="circle4495"
       style="display:inline;opacity:1;fill:#000000" />
  </g>
  <g
     style="display:none"
     inkscape:label="Disc W"
     id="g5269"
     inkscape:groupmode="layer">
    <circle
       transform="translate(-268.48047,-27.947266)"
       style="display:inline;opacity:1;fill:#ffffff"
       id="circle5271"
       cx="525.19128"
       cy="284.65768"
       r="254.21021" />
  </g>
  <style
     id="style4347"
     type="text/css">
    .button {stroke: none; fill: orange;}
    .symbol {stroke: none; fill: white;}
  </style>
  <g
     style="display:inline"
     inkscape:label="Podcast-O K"
     id="g3503"
     inkscape:groupmode="layer">
    <g
       id="g4919">
      <circle
         r="67.960297"
         cy="256.66406"
         cx="256.71094"
         id="path4905"
         style="opacity:1;fill:#00ff00;fill-opacity:1;fill-rule:nonzero;stroke:none;stroke-width:24;stroke-linecap:square;stroke-linejoin:bevel;stroke-miterlimit:4;stroke-dasharray:none;stroke-opacity:1" />
      <path
         sodipodi:nodetypes="sccsccccccsccscccccccccccccccscccccccc"
         style="display:inline;opacity:1;fill:#000000"
         d="m 256.71094,88.744144 c -18.11477,-2.3e-4 -34.5609,7.10017 -46.74414,18.652336 l 93.48828,0 C 291.27217,95.844084 274.82556,88.744434 256.71094,88.744144 Z m -59.13086,34.466786 c -2.85688,5.03187 -5.09892,10.45797 -6.60352,16.18555 l 131.4668,0 c -1.50454,-5.72741 -3.74677,-11.15379 -6.60352,-16.18555 z m -8.79883,32 c -0.0109,0.5004 -0.0371,0.99699 -0.0371,1.5 l 0,14.42774 135.93164,0 0,-14.42774 c 0,-0.503 -0.0262,-0.99961 -0.0371,-1.5 l -135.85742,0 z m -0.0371,31.74219 0,21.88867 c 6.14128,-8.68475 13.88726,-16.1145 22.82031,-21.88867 z m 113.24219,0 c 8.87992,5.76772 16.58024,13.17373 22.68945,21.82227 l 0,-21.82227 z m -145.01759,69.75781 c 1e-5,52.42397 40.44546,95.39819 91.83398,99.42969 l 0,36.79492 c -34.21345,0.93686 -60.01842,7.70909 -60.05859,15.76172 0.003,8.7743 30.43229,15.88683 67.9668,15.88672 37.53375,-1.4e-4 67.96149,-7.1126 67.96484,-15.88672 -0.0231,-8.05546 -25.83131,-14.83211 -60.05664,-15.76953 l 0,-36.78711 c 51.38851,-4.03151 91.83397,-47.00573 91.83398,-99.42969 l -15.88867,0 c -3e-4,46.31089 -37.54262,83.85321 -83.85351,83.85352 -46.3109,-3e-4 -83.85322,-37.54262 -83.85352,-83.85352 z"
         id="path3505"
         inkscape:connector-curvature="0" />
    </g>
  </g>
  <style
     id="style4839"
     type="text/css">
    .button {stroke: none; fill: orange;}
    .symbol {stroke: none; fill: white;}
  </style>
</svg>
